<svg id="Capa_1" data-name="Capa 1" xmlns="http://www.w3.org/2000/svg" viewBox="0 0 287.4 287.43"><defs><style>.cls-1{fill:#000a64;}.cls-2{fill:#00ffb0;}.cls-3{fill:#fff;}</style></defs><title>pokeball</title><path class="cls-1" d="M486.14,849.78H469.29c-2.67-.35-5.33-.74-8-1-30.69-3.59-57.82-15.52-80.22-36.68-39.54-37.36-54.42-83.3-43.6-136.66,12.93-63.83,69.14-110.68,134.29-112.94,33.47-1.17,64.07,7.69,91.07,27.64,30.88,22.81,49.62,53.37,56.37,91.19,1,5.58,1.51,11.25,2.24,16.88v15.73c-.42,3.68-.77,7.38-1.29,11.06-4.47,31.85-17.89,59.37-40.55,82.19a140.56,140.56,0,0,1-81,41C494.44,848.76,490.28,849.24,486.14,849.78Zm62.6-145.84,4.91-.79c13.83-2.36,27-6.52,39.33-13.44,2.5-1.41,3-2.89,2.51-5.54-4.65-24.08-15.28-45.07-32.6-62.47a120.07,120.07,0,0,0-170.3,0c-17.68,17.74-28.51,39.14-32.8,63.84-.24,1.43-.19,2.36,1.25,3.24,13.76,8.32,28.85,12.66,44.62,14.9.7.1,1.79-.85,2.28-1.59a10.47,10.47,0,0,0,.86-2.94c14.76-51,78.55-68.76,117.61-32.79a71.56,71.56,0,0,1,20.94,35.18A9.91,9.91,0,0,0,548.74,703.94ZM358,714.79c4.61,42,23.88,74.59,60.44,95,42.87,24,86.09,22.1,127-5.22,31.51-21.07,48.06-51.73,51.94-89.86-1,.36-1.47.47-1.87.66A153.26,153.26,0,0,1,552,727.71c-2.37.33-3.25,1.06-3.65,3.47a71.58,71.58,0,0,1-141.26-.41c-.32-2-1.09-2.72-3.15-3a154,154,0,0,1-43.55-12.21C359.79,715.29,359.16,715.16,358,714.79Zm71.89,4.42A47.81,47.81,0,1,0,478,671.52,47.94,47.94,0,0,0,429.9,719.21Z" transform="translate(-334.04 -562.35)"/><path class="cls-2" d="M548.74,703.94a9.91,9.91,0,0,1-1.39-2.41,71.56,71.56,0,0,0-20.94-35.18c-39.06-36-102.85-18.17-117.61,32.79a10.47,10.47,0,0,1-.86,2.94c-.49.74-1.58,1.69-2.28,1.59-15.77-2.24-30.86-6.58-44.62-14.9-1.44-.88-1.49-1.81-1.25-3.24,4.29-24.7,15.12-46.1,32.8-63.84a120.07,120.07,0,0,1,170.3,0c17.32,17.4,28,38.39,32.6,62.47.52,2.65,0,4.13-2.51,5.54-12.3,6.92-25.5,11.08-39.33,13.44Z" transform="translate(-334.04 -562.35)"/><path class="cls-3" d="M358,714.79c1.15.37,1.78.5,2.34.76a154,154,0,0,0,43.55,12.21c2.06.29,2.83,1,3.15,3a71.58,71.58,0,0,0,141.26.41c.4-2.41,1.28-3.14,3.65-3.47a153.26,153.26,0,0,0,43.52-12.32c.4-.19.84-.3,1.87-.66-3.88,38.13-20.43,68.79-51.94,89.86-40.87,27.32-84.09,29.19-127,5.22C381.89,789.38,362.62,756.74,358,714.79Z" transform="translate(-334.04 -562.35)"/><path class="cls-3" d="M429.9,719.21a47.81,47.81,0,1,1,47.67,48A47.52,47.52,0,0,1,429.9,719.21Zm47.88-38a38.18,38.18,0,1,0,38.09,38.25A38.09,38.09,0,0,0,477.78,681.21Z" transform="translate(-334.04 -562.35)"/><path class="cls-1" d="M477.78,681.21a38.18,38.18,0,1,1-38.21,37.86A38.06,38.06,0,0,1,477.78,681.21Zm0,52.41A14.22,14.22,0,0,0,492,719.36a14.28,14.28,0,1,0-28.56.07A14.19,14.19,0,0,0,477.76,733.62Z" transform="translate(-334.04 -562.35)"/><path class="cls-3" d="M477.76,733.62a14.19,14.19,0,0,1-14.31-14.19,14.28,14.28,0,1,1,14.31,14.19Z" transform="translate(-334.04 -562.35)"/></svg>