<svg id="Capa_1" data-name="Capa 1" xmlns="http://www.w3.org/2000/svg" viewBox="0 0 158.62 158.66"><defs><style>.cls-1{fill:#fff;}</style></defs><title>iconoReiniciar</title><path class="cls-1" d="M727.16,1063.75c2.44.3,4.89.57,7.33.89a74.19,74.19,0,0,1,22.28,6.72,79.36,79.36,0,0,1,27.14,21c.12.15.24.28.43.49,3.15-3.14,6.27-6.2,9.31-9.33a3.83,3.83,0,0,1,4.1-1.31c1.64.5,2.21,1.74,2.5,3.33a138,138,0,0,1,1.81,32.15c0,.79,0,1.58-.06,2.38-.08,2.41-1.47,4.15-3.85,4.24-5.59.2-11.2.47-16.77.21-6.13-.29-12.23-1.13-18.33-1.78a3.41,3.41,0,0,1-3.3-2.35,3.85,3.85,0,0,1,1.11-4.07c3.52-3.43,7-6.92,10.49-10.42a56.81,56.81,0,0,0-9.4-9.81,59.37,59.37,0,0,0-28.58-13.18A61,61,0,0,0,666,1121.18a58.2,58.2,0,0,0-4,20.41,60.73,60.73,0,0,0,67.28,62.05,59.07,59.07,0,0,0,30.82-12.29,60.14,60.14,0,0,0,22.47-35.61c.42-1.93.55-3.92,1-5.83a9,9,0,0,1,9.54-6.83c4.09.26,8,3.55,8.19,7.63a31.54,31.54,0,0,1-.61,7.31,76.43,76.43,0,0,1-12.22,29.43,78.66,78.66,0,0,1-47.3,32.74,74.58,74.58,0,0,1-25.39,1.86,79.61,79.61,0,0,1-63.48-43,77.4,77.4,0,0,1-7.87-24.66,78.44,78.44,0,0,1,5.89-43.36,77.63,77.63,0,0,1,12.44-19.59,79.26,79.26,0,0,1,27.69-20.79,74.76,74.76,0,0,1,23-6.36c1.66-.18,3.31-.39,5-.59Z" transform="translate(-643.67 -1063.75)"/></svg>