<svg id="Capa_1" data-name="Capa 1" xmlns="http://www.w3.org/2000/svg" viewBox="0 0 129.68 129.77"><defs><style>.cls-1{fill:#fff;}</style></defs><title>mute</title><path class="cls-1" d="M937,508.76c10.32-10.13,20.42-20.07,30.54-30a9.09,9.09,0,0,1,5.5-3,5.39,5.39,0,0,1,6.17,4.7,22.42,22.42,0,0,1,.28,3.57q0,32.72,0,65.45a3.84,3.84,0,0,0,1.27,3q20.9,20.82,41.74,41.71c2.33,2.33,2.9,4.66,1.8,7.27-1.34,3.18-5.76,4.58-8.39,2.36-3.09-2.59-5.91-5.51-8.76-8.36q-25.86-25.82-51.69-51.67l-52.09-52.11c-2.08-2.08-4.19-4.13-6.25-6.24-3.25-3.34-2.35-8.2,1.9-9.89,2.64-1,4.85,0,6.75,1.9Q919,490.74,932.35,504C933.89,505.56,935.42,507.13,937,508.76Z" transform="translate(-895.16 -475.12)"/><path class="cls-1" d="M902.87,540.11q0-8.61,0-17.22c0-3.75,2.18-6.1,5.92-6.31a37.44,37.44,0,0,1,5.08,0,3.3,3.3,0,0,1,1.85,1q27.93,27.87,55.82,55.79c2.4,2.4,4.83,4.78,7.18,7.22a2.92,2.92,0,0,1,.76,1.78c.06,4.5.08,9,0,13.48a17.25,17.25,0,0,1-.59,4.42c-1.21,4.23-5.22,5.78-8.78,3.2a62.84,62.84,0,0,1-6.87-6.2Q946.57,581,929.9,564.64a3.27,3.27,0,0,0-2.07-.81c-6.14-.07-12.28,0-18.42-.05-3.32,0-5.57-1.57-6.34-4.38a7.24,7.24,0,0,1-.19-1.92Q902.87,548.8,902.87,540.11Z" transform="translate(-895.16 -475.12)"/></svg>