<svg id="Capa_1" data-name="Capa 1" xmlns="http://www.w3.org/2000/svg" viewBox="0 0 136.76 106.68"><defs><style>.cls-1{fill:#fff;}</style></defs><title>play</title><path class="cls-1" d="M967.61,540.17q0,22.46,0,44.89,0,1.7-.06,3.39a4.69,4.69,0,0,1-3,4.48,5.06,5.06,0,0,1-5.51-1c-10.35-9-20.66-18-31.07-26.87a6.28,6.28,0,0,0-3.73-1.39c-8.83-.13-17.65-.07-26.47-.09-4.38,0-6.13-1.78-6.14-6.2q0-17.58,0-35.15c0-4.39,1.81-6.22,6.13-6.23,9,0,17.93,0,26.89-.08a6.33,6.33,0,0,0,3.75-1.35q15.15-12.9,30.14-26c1.86-1.63,3.78-2.48,6.15-1.43s2.89,3.06,2.89,5.4q0,23.84,0,47.65Z" transform="translate(-891.62 -486.66)"/><path class="cls-1" d="M1028.36,540.32a82.15,82.15,0,0,1-17.12,50.15c-2.11,2.77-5,3.38-7.35,1.63s-2.65-4.85-.52-7.65a71.3,71.3,0,0,0,14.77-51.22,69.66,69.66,0,0,0-14.94-37.4c-1.48-1.88-2.08-3.88-1-6.07a4.26,4.26,0,0,1,4.91-2.49,7,7,0,0,1,3.64,2.22,80.86,80.86,0,0,1,17.18,43c.15,1.62.28,3.23.37,4.85C1028.41,538.34,1028.36,539.33,1028.36,540.32Z" transform="translate(-891.62 -486.66)"/><path class="cls-1" d="M1010.24,540.18a65,65,0,0,1-11.94,37.5,5.23,5.23,0,0,1-7.26,1.57c-2.37-1.68-2.82-4.55-.88-7.3a53.59,53.59,0,0,0,9-20.16c3.2-15.51.27-29.82-8.66-42.93a9.39,9.39,0,0,1-1.62-4,4.48,4.48,0,0,1,3.18-4.52,4.6,4.6,0,0,1,5.63,1.76,94.83,94.83,0,0,1,6.05,9.92A62.45,62.45,0,0,1,1010.24,540.18Z" transform="translate(-891.62 -486.66)"/><path class="cls-1" d="M991.14,540.29a47.44,47.44,0,0,1-6.21,22.24c-1.91,3.42-4.7,4.56-7.42,3s-3.24-4.37-1.3-7.72A34.73,34.73,0,0,0,981,538.41a34.17,34.17,0,0,0-4.33-15.1c-.38-.68-.8-1.33-1.14-2a4.9,4.9,0,0,1,1.78-6.64c2.32-1.37,5.34-.9,6.6,1.67a104.21,104.21,0,0,1,5.88,14.17C990.74,533.58,990.71,537,991.14,540.29Z" transform="translate(-891.62 -486.66)"/></svg>